<svg viewBox="0 0 100 100" xmlns="http://www.w3.org/2000/svg" >
    <rect width="100" height="100" fill="#CD7F32" /><line x1="0" y1="0" x2="0" y2="100" stroke="#8B4513" stroke-width="1" opacity="0.3" /><line x1="0" y1="0" x2="100" y2="0" stroke="#8B4513" stroke-width="1" opacity="0.3" /><line x1="20" y1="0" x2="20" y2="100" stroke="#8B4513" stroke-width="1" opacity="0.3" /><line x1="0" y1="20" x2="100" y2="20" stroke="#8B4513" stroke-width="1" opacity="0.3" /><line x1="40" y1="0" x2="40" y2="100" stroke="#8B4513" stroke-width="1" opacity="0.3" /><line x1="0" y1="40" x2="100" y2="40" stroke="#8B4513" stroke-width="1" opacity="0.3" /><line x1="60" y1="0" x2="60" y2="100" stroke="#8B4513" stroke-width="1" opacity="0.3" /><line x1="0" y1="60" x2="100" y2="60" stroke="#8B4513" stroke-width="1" opacity="0.3" /><line x1="80" y1="0" x2="80" y2="100" stroke="#8B4513" stroke-width="1" opacity="0.3" /><line x1="0" y1="80" x2="100" y2="80" stroke="#8B4513" stroke-width="1" opacity="0.3" /><circle cx="50" cy="50" r="36" fill="hsl(171, 70%, 50%)" stroke="#8B4513" stroke-width="3" /><circle cx="37" cy="40" r="6" fill="white" /><circle cx="63" cy="40" r="6" fill="white" /><circle cx="37" cy="40" r="3.0" fill="black" /><circle cx="63" cy="40" r="3.0" fill="black" /><path d="M 40 60 Q 50 70 60 60" stroke="black" stroke-width="2" fill="none" /><circle cx="25" cy="15" r="10" fill="hsl(171, 70%, 50%)" /><circle cx="75" cy="15" r="10" fill="hsl(171, 70%, 50%)" />
    </svg>