<svg viewBox="0 0 100 100" xmlns="http://www.w3.org/2000/svg" >
    <rect width="100" height="100" fill="#C0C0C0" /><line x1="0" y1="0" x2="0" y2="100" stroke="#A9A9A9" stroke-width="1" opacity="0.3" /><line x1="0" y1="0" x2="100" y2="0" stroke="#A9A9A9" stroke-width="1" opacity="0.3" /><line x1="20" y1="0" x2="20" y2="100" stroke="#A9A9A9" stroke-width="1" opacity="0.3" /><line x1="0" y1="20" x2="100" y2="20" stroke="#A9A9A9" stroke-width="1" opacity="0.3" /><line x1="40" y1="0" x2="40" y2="100" stroke="#A9A9A9" stroke-width="1" opacity="0.3" /><line x1="0" y1="40" x2="100" y2="40" stroke="#A9A9A9" stroke-width="1" opacity="0.3" /><line x1="60" y1="0" x2="60" y2="100" stroke="#A9A9A9" stroke-width="1" opacity="0.3" /><line x1="0" y1="60" x2="100" y2="60" stroke="#A9A9A9" stroke-width="1" opacity="0.3" /><line x1="80" y1="0" x2="80" y2="100" stroke="#A9A9A9" stroke-width="1" opacity="0.3" /><line x1="0" y1="80" x2="100" y2="80" stroke="#A9A9A9" stroke-width="1" opacity="0.3" /><polygon points="50,12 88,88 12,88" fill="hsl(227, 70%, 50%)" stroke="#A9A9A9" stroke-width="4" /><circle cx="36" cy="40" r="7" fill="white" /><circle cx="64" cy="40" r="7" fill="white" /><circle cx="36" cy="40" r="3.5" fill="black" /><circle cx="64" cy="40" r="3.5" fill="black" /><path d="M 40 60 Q 50 70 60 60" stroke="black" stroke-width="2" fill="none" /><circle cx="85" cy="20" r="8" fill="hsl(257, 70%, 60%)" opacity="0.7" /><circle cx="15" cy="20" r="8" fill="hsl(257, 70%, 60%)" opacity="0.7" />
    </svg>